<?xml version="1.0" encoding="UTF-8"?><svg xmlns="http://www.w3.org/2000/svg" xmlns:xlink="http://www.w3.org/1999/xlink" height="75.2" preserveAspectRatio="xMidYMid meet" version="1.0" viewBox="0.0 -0.0 77.8 75.2" width="77.8" zoomAndPan="magnify"><g data-name="18" id="change1_1"><path d="M76.811,72.706H69.748a.759.759,0,0,1-.178-.036H56.15V69.61h0V68.28h0V62.44h0V61.1h0V57.59h0V55.55h0V51.57h0V49.5h0V45.312c-.044-.16-.087-.321-.119-.484-.053-.062-.106-.125-.161-.185-.145-.16-.3-.315-.452-.466-.379-.366-.777-.713-1.175-1.059l0,0-.08-.06h-.01l-4.44-3.17-2.14-1.53-.2-.14V9.12h3.99a1.25,1.25,0,0,0,1.25-1.25V2.5H67.95V7.87A1.25,1.25,0,0,0,69.2,9.12h3.99q.124,18,.25,36.01V72.66h2.25V7.87a1.25,1.25,0,0,0-1.25-1.25H70.45V1.25A1.25,1.25,0,0,0,69.2,0H51.36a1.25,1.25,0,0,0-1.25,1.25V6.62h-4a1.25,1.25,0,0,0-1.25,1.25V36.43L39.64,32.7a1.406,1.406,0,0,0-.37-.18,1.332,1.332,0,0,0-.34-.05h-.02a1.332,1.332,0,0,0-.34.05,1.5,1.5,0,0,0-.4.2l-5.19,3.71V7.87a1.253,1.253,0,0,0-1.26-1.25H27.73V1.25A1.25,1.25,0,0,0,26.48,0H8.64A1.25,1.25,0,0,0,7.39,1.25V6.62H3.4A1.25,1.25,0,0,0,2.15,7.87V72.66H4.39L4.4,45.13q.124-18,.25-36.01H8.64A1.25,1.25,0,0,0,9.89,7.87V2.5H25.23V7.87a1.25,1.25,0,0,0,1.25,1.25h3.99v29.1l-.2.14-2.15,1.53-3.056,2.182c-.008,0-.013.014-.021.019l-.04.024-1.323.945-.713.4-.259.2-.05.038-.037.033c-.05.044-.262.225-.285.245a2.4,2.4,0,0,0-.35.387h0a2.991,2.991,0,0,0-.261.432l-.009.019L21.69,49.5h-.01V51.57h.01v3.98h-.01v2.04h.01V61.1h-.01v1.34h.01v5.84h-.01v1.33h.01v3.06H6.594a.724.724,0,0,1-.171.036H2.23a.75.75,0,0,1-.224-.046H1.25a1.255,1.255,0,0,0,0,2.51H76.58a1.255,1.255,0,0,0,1.26-1.26A1.233,1.233,0,0,0,76.811,72.706ZM46.96,72.66H30.88V70.78H46.96Zm0-4.38H30.88V66.61H46.96Zm0-4.17H30.88V62.44H46.96Zm0-4.17H30.88V58.06H46.96Zm6.69,12.73H49.46V56.81a1.25,1.25,0,0,0-1.25-1.25H29.63a1.25,1.25,0,0,0-1.25,1.25V72.67H24.19V45.77l6.84-4.88v-.01l7.89-5.63,6.4,4.57a1.7,1.7,0,0,0,.14.1l8.19,5.85ZM70.182,15.042H50.375a1.4,1.4,0,0,1,0-2.8H70.182A1.4,1.4,0,0,1,70.182,15.042Zm0,6.072H50.375a1.4,1.4,0,0,1,0-2.8H70.182A1.4,1.4,0,0,1,70.182,21.114Zm0,6.072H50.375a1.4,1.4,0,0,1,0-2.8H70.182A1.4,1.4,0,0,1,70.182,27.186Zm0,6.072H50.375a1.4,1.4,0,0,1,0-2.8H70.182A1.4,1.4,0,0,1,70.182,33.258Zm0,6.073H50.375a1.4,1.4,0,0,1,0-2.8H70.182A1.4,1.4,0,0,1,70.182,39.331Zm0,6.072H58.038a1.4,1.4,0,0,1,0-2.8H70.182A1.4,1.4,0,0,1,70.182,45.4Zm0,6.072H58.038a1.4,1.4,0,0,1,0-2.8H70.182A1.4,1.4,0,0,1,70.182,51.475Zm0,6.072H58.038a1.4,1.4,0,0,1,0-2.8H70.182A1.4,1.4,0,0,1,70.182,57.547Zm0,6.073H58.038a1.4,1.4,0,0,1,0-2.8H70.182A1.4,1.4,0,0,1,70.182,63.62Zm0,3.272a1.4,1.4,0,0,1,0,2.8H58.038a1.4,1.4,0,0,1,0-2.8Zm-62.6-54.65H27.387a1.4,1.4,0,0,1,0,2.8H7.579A1.4,1.4,0,0,1,7.579,12.242Zm0,6.072H27.387a1.4,1.4,0,0,1,0,2.8H7.579A1.4,1.4,0,0,1,7.579,18.314Zm0,6.072H27.387a1.4,1.4,0,0,1,0,2.8H7.579A1.4,1.4,0,0,1,7.579,24.386Zm0,6.072H27.387a1.4,1.4,0,0,1,0,2.8H7.579A1.4,1.4,0,0,1,7.579,30.458Zm0,6.073H27.387a1.4,1.4,0,0,1,0,2.8H7.579A1.4,1.4,0,0,1,7.579,36.531Zm0,6.072H19.723a1.4,1.4,0,0,1,0,2.8H7.579A1.4,1.4,0,0,1,7.579,42.6Zm0,6.072H19.723a1.4,1.4,0,0,1,0,2.8H7.579A1.4,1.4,0,0,1,7.579,48.675Zm0,6.073H19.723a1.4,1.4,0,0,1,0,2.8H7.579A1.4,1.4,0,0,1,7.579,54.748Zm0,6.072H19.723a1.4,1.4,0,0,1,0,2.8H7.579A1.4,1.4,0,0,1,7.579,60.82Zm0,6.072H19.723a1.4,1.4,0,0,1,0,2.8H7.579A1.4,1.4,0,0,1,7.579,66.892Z"/></g></svg>