<?xml version="1.0" encoding="UTF-8"?><svg xmlns="http://www.w3.org/2000/svg" xmlns:xlink="http://www.w3.org/1999/xlink" height="400.0" preserveAspectRatio="xMidYMid meet" version="1.0" viewBox="0.0 0.0 400.0 400.0" width="400.0" zoomAndPan="magnify"><g id="change1_1"><path d="M393.55,75.24h-37.21l-151-60.95V6.45c0-3.56-2.89-6.45-6.45-6.45h-26.07c-3.56,0-6.45,2.89-6.45,6.45v8.86L81.89,75.24 H55.22c-3.56,0-6.45,2.89-6.45,6.45v16.63c0,0.17,0.01,0.34,0.03,0.51l0,52.81L2.11,199.75C0.82,200.93,0,202.62,0,204.51v74.44 c0,3.56,2.89,6.45,6.45,6.45H104c3.56,0,6.45-2.89,6.45-6.45v-74.43c0,0,0-0.01,0-0.01c0-0.03-0.01-0.07-0.01-0.1 c0-0.2-0.01-0.39-0.03-0.58c-0.01-0.09-0.03-0.17-0.04-0.25c-0.02-0.14-0.04-0.28-0.07-0.42c-0.02-0.09-0.04-0.17-0.07-0.26 c-0.03-0.13-0.07-0.26-0.11-0.38c-0.03-0.09-0.06-0.17-0.09-0.26c-0.05-0.12-0.09-0.24-0.14-0.36c-0.04-0.08-0.08-0.16-0.12-0.24 c-0.06-0.12-0.12-0.23-0.18-0.34c-0.04-0.08-0.09-0.15-0.13-0.22c-0.07-0.11-0.14-0.22-0.22-0.33c-0.05-0.07-0.1-0.13-0.15-0.2 c-0.08-0.11-0.17-0.21-0.26-0.31c-0.05-0.06-0.1-0.12-0.16-0.17c-0.1-0.1-0.2-0.2-0.31-0.3c-0.03-0.03-0.06-0.06-0.1-0.09 l-46.62-48.05l0-46.86h67.74v0.2c0,3.56,2.89,6.45,6.45,6.45h14.42V151v46.03v46.03v46.03v42.76l-21.03,15.16 c-1.89,1.12-3.15,3.18-3.15,5.54v10.98H55.22c-3.56,0-6.45,2.89-6.45,6.45v23.57c0,3.56,2.89,6.45,6.45,6.45h261.26 c3.56,0,6.45-2.89,6.45-6.45v-23.57c0-3.56-2.89-6.45-6.45-6.45h-70.84v-10.98h0h-0.03c0-2-0.93-3.96-2.67-5.22l-21.49-15.49v-42.76 v-46.03v-46.03V151v-39.58h14.42c3.56,0,6.45-2.89,6.45-6.45v-0.2h65.34v17.05c0,3.56,2.89,6.45,6.45,6.45h22.95v50.38h-5.64 c-3.56,0-6.45,2.89-6.45,6.45v35.29c0,3.56,2.89,6.45,6.45,6.45h5.64v9.51c-4.29,1.15-8.14,3.42-11.18,6.46 c-4.51,4.51-7.31,10.75-7.31,17.64s2.8,13.12,7.31,17.64s10.75,7.31,17.63,7.31c6.88,0,13.12-2.8,17.63-7.31 c4.51-4.51,7.31-10.75,7.31-17.64c0-3.56-2.89-6.45-6.45-6.45s-6.45,2.89-6.45,6.45v0c0,3.33-1.35,6.34-3.53,8.52 s-5.19,3.53-8.52,3.53c-3.32,0-6.34-1.35-8.52-3.53c-2.18-2.18-3.53-5.19-3.53-8.52c0-3.33,1.35-6.34,3.53-8.52 c2.18-2.18,5.19-3.53,8.52-3.53c3.56,0,6.45-2.89,6.45-6.45v-15.12h5.64c3.56,0,6.45-2.89,6.45-6.45v-35.29 c0-3.56-2.89-6.45-6.45-6.45h-5.64v-50.38h22.95c3.56,0,6.45-2.89,6.45-6.45v-17.05h14.18c3.56,0,6.45-2.89,6.45-6.45V81.69 C400,78.13,397.11,75.24,393.55,75.24z M349.17,213.93h-11.28v-22.4h5.64c0,0,0,0,0,0s0,0,0,0h5.64V213.93z M366.47,115.36h-45.9 v-10.6h45.9V115.36z M321.98,75.24h-79.66c-0.15-3.43-2.97-6.17-6.44-6.17h-14.18V52.02c0-3.56-2.89-6.45-6.45-6.45h-9.91V28.16 L321.98,75.24z M172.82,58.47h26.07h9.91v10.6h-45.9v-10.6H172.82z M179.27,12.9h13.17v32.67h-13.17V12.9z M166.37,31.08v14.49 h-9.91c-3.56,0-6.45,2.89-6.45,6.45v17.05h-14.18c-3.47,0-6.29,2.74-6.44,6.17h-25.28L166.37,31.08z M12.9,272.49v-61.54h84.65 v61.54H12.9z M21.67,198.06l33.56-34.58h0l33.56,34.58H21.67z M61.67,91.87v-3.73h67.71v3.73H61.67z M163.15,164.27l33.33,26.31 h-33.33V164.27z M196.48,236.61h-33.33V210.3L196.48,236.61z M196.48,282.64h-33.33v-26.31L196.48,282.64z M163.15,302.36 l33.33,26.31h-33.33V302.36z M175.24,295.54h33.33v26.31L175.24,295.54z M175.24,249.51h33.33v26.31L175.24,249.51z M175.24,203.48 h33.33v26.31L175.24,203.48z M175.24,157.45h33.33v26.31L175.24,157.45z M163.15,144.55v-26.31l33.33,26.31H163.15z M310.04,387.1 H61.67v-10.67h70.8c0.01,0,0.03,0,0.04,0H239.2c0.01,0,0.03,0,0.04,0h70.8V387.1z M232.75,363.54h-93.78v-7.71l19.78-14.25h54.23 l19.78,14.25V363.54z M208.57,137.73l-33.33-26.31h33.33V137.73z M229.43,98.52h-14.42H156.7h-14.42v-0.2V81.96h14.18h58.79h14.18 v16.35V98.52z M387.1,91.87h-14.18h-58.79h-71.79v-3.73H387.1V91.87z"/></g></svg>