<?xml version="1.0" encoding="UTF-8"?><svg xmlns="http://www.w3.org/2000/svg" xmlns:xlink="http://www.w3.org/1999/xlink" height="398.4" preserveAspectRatio="xMidYMid meet" version="1.0" viewBox="-0.7 -0.4 400.7 398.4" width="400.7" zoomAndPan="magnify"><g id="change1_1"><path d="M2.23,52.32l34.03,26.21c1.32,1.02,3.07,1.45,4.82,1.03c8.67-2.1,16.93-4.15,24.8-6.18L52.39,97.51 c-1.53,2.75-0.54,6.21,2.21,7.74c1.48,0.82,3.16,0.92,4.64,0.4l23.23-6.69c0.93-0.26,1.73-0.74,2.39-1.36l42.96-41.14 c0.4-0.39,0.71-0.84,0.98-1.3c0.46-0.15,0.93-0.31,1.38-0.46c22.96-7.82,38.67-15.12,47.11-21.88c4.68-3.75,7.23-7.72,8.05-11.35 c0.63-2.76,0.31-5.35-0.78-7.62c-1.08-2.23-2.88-4.04-5.25-5.28c-2.83-1.49-6.57-2.14-10.8-1.63c-4.73-2.54-8.84-4.38-12.34-5.5 c-4.66-1.5-8.54-1.81-11.63-0.94c-0.29,0.08-0.57,0.19-0.85,0.31l-30.33,13.95l-57.73-4.47c-0.93-0.09-1.89,0.04-2.81,0.44 L30.32,20.4c-1.35,0.58-2.48,1.68-3.06,3.16c-1.14,2.93,0.3,6.24,3.24,7.39l25.7,10.1l-12.83,5.9l-12.4-9.09l0,0 c-1.34-1.06-3.14-1.5-4.92-1.06L4.33,42.29c-1.2,0.3-2.31,0.99-3.13,2.04C-0.72,46.82-0.26,50.4,2.23,52.32z M77.97,88.42 l-8.88,2.56l12.09-21.62c8.41-2.27,16.3-4.49,23.66-6.66L77.97,88.42z M47.57,25.4l8.48-3.64l36.02,2.79l-21.51,9.9L47.57,25.4z M26.24,48.52l13.11,9.61h0c1.73,1.27,3.94,1.42,5.76,0.58l71.57-32.93c0.05-0.02,0.1-0.05,0.16-0.07l31.1-14.31 c0.96-0.13,2.55,0.16,4.77,0.87c3.21,1.03,7.22,2.89,12.03,5.57c1.26,0.7,2.66,0.87,3.97,0.59c2.41-0.49,4.26-0.36,5.35,0.22 l0.26,0.15c0.01,0.03-0.04,0.03-0.07,0.17c-0.29,1.26-1.56,2.95-4.08,4.97c-7.38,5.91-21.93,12.57-43.63,19.96 c-21.68,7.39-50.18,15.38-85.46,23.96L18.49,50.47L26.24,48.52z M216.02,115.8c0-3.15,2.56-5.71,5.71-5.71h6.37 c3.15,0,5.71,2.56,5.71,5.71c0,3.15-2.56,5.71-5.71,5.71h-6.37C218.58,121.51,216.02,118.96,216.02,115.8z M216.02,99.43 c0-3.15,2.56-5.71,5.71-5.71h6.37c3.15,0,5.71,2.56,5.71,5.71c0,3.15-2.56,5.71-5.71,5.71h-6.37 C218.58,105.14,216.02,102.59,216.02,99.43z M388.27,331.51H216.22c-0.79-1.55-1.81-2.98-3.04-4.21l-0.02-0.02 c-1.7-1.7-3.78-3.02-6.09-3.85h63.5c0.02,0,0.03,0,0.05,0h88.4c4.01,0,7.84-0.48,11.43-1.38c9-2.26,16.39-7.18,21.54-13.94 c5.13-6.74,8.01-15.23,8.01-24.66c0-3.95-0.52-8.09-1.58-12.34c-3.43-13.66-12.1-26.05-23.3-35c-9.91-7.92-21.86-13.19-33.97-14.32 c0.45-2.82,0.82-5.7,1.11-8.65c0.32-3.27,0.52-6.52,0.63-9.73h25.48c2.55,0,4.71-1.67,5.44-3.98c4.67-11.98,8.76-23.18,12.33-33.8 l0,0c3.61-10.75,6.63-20.69,9.14-30.05c0.81-3.04-1-6.17-4.04-6.98c-0.49-0.13-0.99-0.19-1.47-0.2h-18.16v-20.49c0,0,0,0,0,0 s0,0,0,0V75.4c0-3.15-2.56-5.71-5.71-5.71h-40.28c0,0,0,0,0,0s0,0,0,0h-40.28h-23.01c-9.5-4.72-19.46-8.37-29.9-10.83 c-10.67-2.52-21.81-3.82-33.41-3.82c0,0,0,0,0,0s0,0,0,0c0,0,0,0,0,0c-39.75,0-75.74,16.12-101.79,42.16 c-26.05,26.05-42.16,62.04-42.16,101.79c0,8.71,0.8,17.32,2.32,25.76c0.19,1.07,0.4,2.14,0.62,3.21c0.04,0.36,0.12,0.72,0.23,1.06 c0.92,4.36,2.04,8.64,3.35,12.83H5.72h0c-3.15,0-5.71,2.56-5.71,5.71v128.08c0,3.15,2.56,5.71,5.71,5.71h0h13.39 c0.49,1.84,1.21,3.59,2.12,5.22H10.7c-3.15,0-5.71,2.56-5.71,5.71c0,3.15,2.56,5.71,5.71,5.71h26.66c0.38,0,0.75-0.04,1.11-0.11 c0.74,0.07,1.5,0.11,2.26,0.11c6.14,0,11.72-2.5,15.78-6.55l0.86-0.91l0.86,0.91c4.05,4.04,9.63,6.55,15.79,6.55 c6.14,0,11.72-2.5,15.78-6.55l0.02-0.02c2.75-2.75,4.78-6.21,5.8-10.07h39.31c0,0,0.01,0,0.01,0h20.17 c0.49,1.84,1.21,3.59,2.12,5.22h-34.44c-3.15,0-5.71,2.56-5.71,5.71c0,3.15,2.56,5.71,5.71,5.71h50.06c0.44,0,0.87-0.06,1.28-0.15 c0.85,0.1,1.71,0.16,2.59,0.16c6.14,0,11.73-2.51,15.8-6.56l0.03-0.02c2.74-2.75,4.77-6.21,5.79-10.06h13.97 c3.15,0,5.71-2.56,5.71-5.71v-32.7h170.25c3.15,0,5.71-2.56,5.71-5.71C393.98,334.07,391.42,331.51,388.27,331.51z M140.66,253.26 h61.95v22.41h-11.49c-4.4-3.62-10.01-5.82-16.13-5.82h-34.34V253.26z M319.16,275.67v-22.41h20.79v22.41H319.16z M293.58,253.27 h14.15v39.74h-14.15V253.27z M282.16,275.67h-25.99v-22.41h25.99V275.67z M244.75,275.67h-30.72v-22.41h30.72V275.67z M184.38,298.29l6.23,20.91c0.03,0.11,0.06,0.23,0.1,0.34l0.86,2.9h-22.34l0.35-24.14L184.38,298.29z M367.69,310.98 c-2.66,0.67-5.56,1.02-8.66,1.02h-88.45c-0.02,0-0.03,0-0.05,0h-70.16l-4.16-13.97c2.63-0.8,4.37-3.41,3.98-6.23 c-0.22-1.62-0.62-3.2-1.14-4.71h9.26c0,0,0.01,0,0.01,0s0.01,0,0.01,0h42.13c0,0,0.01,0,0.01,0s0.01,0,0.01,0h31.69v11.62 c0,3.15,2.56,5.71,5.71,5.71h25.57c3.15,0,5.71-2.56,5.71-5.71V287.1h26.5c0,0,0.01,0,0.01,0s0.01,0,0.01,0h42.69 c-0.59,5.4-2.46,10.21-5.42,14.09C379.34,305.91,374.11,309.37,367.69,310.98z M387.75,275.67h-36.37v-22.41h25.14 c5.12,6.08,8.96,13.12,10.84,20.61C387.5,274.48,387.62,275.07,387.75,275.67z M81.9,136.9l27.11,0.34 c-5.37,16.37-8.66,34.45-9.41,53.51l-32.84-0.35C67.99,171.16,73.33,153.04,81.9,136.9z M319.9,130.77c-0.41,0.57-0.73,1.2-0.92,1.9 l-0.83,2.35h-27.11v-21.39h28.85V130.77z M198.99,66.46c0.01,0,0.01,0,0.02,0c0,0,0,0,0.01,0c1.37,0,2.84,0.74,4.38,2.17 c0.35,0.32,0.71,0.69,1.06,1.08c-3,0.17-5.39,2.65-5.39,5.7v51.58l-24.64-0.31c1.41-8.73,3.05-16.8,4.91-24.03 C185.09,80.31,192.1,66.48,198.99,66.46z M250.77,113.63h28.86v20.49h-28.86V113.63z M239.34,81.11v26.81v26.21h-28.86V81.11H239.34 z M193.05,138.29c-0.35,0.74-0.55,1.57-0.55,2.44c0,0.51,0.07,1,0.19,1.47c1.79,9.47,4.26,18.83,7.52,28.32 c2.4,6.98,5.25,14.09,8.59,21.4l-39.64-0.42c0.26-19.17,1.54-37.25,3.62-53.46L193.05,138.29z M279.62,102.21h-28.86v-21.1h28.86 V102.21z M218.36,69.69c-0.41-0.7-0.82-1.39-1.24-2.04c3.89,0.51,7.7,1.2,11.45,2.04H218.36z M179.94,69.6 c-4.51,7.57-8.44,17.84-11.63,30.23c-2.07,8.01-3.88,16.98-5.4,26.7l-37.46-0.47c3.45-7.82,7.44-15.08,11.89-21.63 C148.92,87.38,163.6,75.07,179.94,69.6z M161.32,137.89c-2.05,16.34-3.31,34.42-3.58,53.48l-46.71-0.5 c0.77-19.23,4.28-37.33,9.96-53.48L161.32,137.89z M68.38,221.56c-1.09-6.39-1.73-12.99-1.87-19.78l32.95,0.35 c0.06,3.86,0.21,7.72,0.47,11.56c0.18,2.64,0.41,5.26,0.69,7.87H68.38z M112.09,221.56c-0.32-2.83-0.59-5.7-0.78-8.63 c-0.23-3.45-0.38-7.01-0.43-10.68l46.82,0.5c0.03,3.32,0.1,6.85,0.2,10.61c0.08,2.78,0.17,5.51,0.29,8.19H112.09z M169.6,221.56 c-0.13-2.88-0.24-5.72-0.32-8.5c-0.09-3.11-0.14-6.5-0.16-10.18l48.47,0.52c0.09,0,0.18,0.02,0.27,0.02h1.64l9.39,0.1 c-0.03,3.43-0.08,6.61-0.16,9.54c-0.08,2.78-0.19,5.63-0.32,8.5H169.6z M240.11,213.37c0.09-3.43,0.16-6.66,0.19-9.73l46.79,0.5 c-0.07,3-0.19,5.94-0.39,8.79c-0.2,2.93-0.46,5.8-0.78,8.63h-46.1C239.94,218.88,240.04,216.15,240.11,213.37z M298.09,213.69 c0.21-3.14,0.35-6.28,0.42-9.43l32.91,0.35c-0.1,2.55-0.26,5.04-0.5,7.46c-0.31,3.14-0.74,6.3-1.29,9.49h-32.24 C297.67,218.95,297.91,216.33,298.09,213.69z M375.34,162.02c-3.12,9.29-6.73,19.23-10.87,29.97H221.42 c-4.14-8.63-7.59-16.97-10.41-25.18c-2.37-6.89-4.28-13.64-5.8-20.37l116.98-0.02c2.36,0,4.56-1.47,5.38-3.82l0.98-2.77h37.31 c0.02,0,0.03,0,0.05,0s0.03,0,0.05,0h16.31C380.22,146.96,377.92,154.33,375.34,162.02z M331.33,128.41v-14.78h28.86v14.78H331.33z M331.33,81.11h28.86v21.1h-28.86V81.11z M319.9,102.2h-28.86v-21.1h28.86V102.2z M105.29,105.27 c11.38-11.37,24.81-20.69,39.7-27.34c-6.2,5.78-11.92,12.53-17.07,20.11c-5.66,8.34-10.63,17.7-14.76,27.86l-24.52-0.31 C93.52,118.28,99.1,111.47,105.29,105.27z M70.87,232.98H336.3c0,0,0,0,0.01,0c9.45,0,19.03,3.32,27.38,8.86H133.01 c-0.02,0-0.03,0-0.05,0H73.55C72.56,238.93,71.66,235.97,70.87,232.98z M48.47,383.37l-0.02,0.02c-1.96,1.96-4.7,3.18-7.73,3.18 c-3.03,0-5.77-1.22-7.74-3.19c-1.97-1.97-3.19-4.71-3.19-7.74c0-3.02,1.23-5.76,3.2-7.73l0.24-0.25c1.96-1.83,4.6-2.95,7.5-2.95 c3.02,0,5.76,1.23,7.73,3.2c1.98,1.98,3.2,4.71,3.2,7.73C51.65,378.67,50.44,381.41,48.47,383.37z M58.2,359.83l-0.84,0.88 l-0.84-0.88c-4.04-4.04-9.64-6.55-15.81-6.55l0,0c-5.98,0-11.42,2.36-15.44,6.21l-0.37,0.34c-2.75,2.75-4.79,6.22-5.81,10.1h-7.67 V253.27h57.38c0.48,0.06,0.98,0.06,1.47,0h58.95v22.3v0v94.36h-33.6c-1.02-3.88-3.06-7.35-5.81-10.1 c-4.04-4.04-9.64-6.55-15.81-6.55c-5.98,0-11.42,2.36-15.44,6.21L58.2,359.83z M81.77,383.37l-0.02,0.02 c-1.96,1.96-4.7,3.18-7.73,3.18c-3.03,0-5.77-1.22-7.74-3.19c-1.97-1.97-3.19-4.71-3.19-7.74c0-3.02,1.23-5.76,3.2-7.73l0,0 l0.24-0.25c1.96-1.83,4.6-2.95,7.5-2.95c3.02,0,5.76,1.23,7.73,3.2c1.98,1.98,3.2,4.71,3.2,7.73 C84.95,378.67,83.73,381.41,81.77,383.37z M184.46,383.39c-1.96,1.96-4.7,3.18-7.73,3.18c-3.03,0-5.77-1.22-7.74-3.19 c-1.97-1.97-3.19-4.71-3.19-7.74c0-3.02,1.23-5.76,3.19-7.74c1.97-1.97,4.72-3.19,7.74-3.19v0c3.02,0,5.76,1.23,7.73,3.2 c1.97,1.97,3.2,4.7,3.2,7.71c0,0.01,0,0.02,0,0.03c0,0.01,0,0.02,0,0.02c-0.01,3.02-1.22,5.75-3.18,7.71L184.46,383.39z M206.6,369.93h-8.25c-1.02-3.88-3.06-7.35-5.81-10.1c-4.04-4.04-9.64-6.55-15.81-6.55c-6.15,0-11.74,2.5-15.79,6.55h-0.02 c-2.75,2.75-4.79,6.22-5.81,10.1h-14.45v-88.65h34.34c3.5,0,6.72,1.31,9.18,3.45l0.27,0.22c0.64,0.59,1.23,1.23,1.75,1.93h-22.23 c-3.15,0-5.71,2.56-5.71,5.71l-0.49,35.5c-0.04,3.14,2.48,5.72,5.62,5.76c2.11,0.68,31.57,0.02,38.15,0.02 c1.4,0,2.66,0.56,3.57,1.47l0.02,0.02c0.9,0.9,1.47,2.17,1.47,3.57V369.93z M393.98,392.28c0,3.15-2.56,5.71-5.71,5.71H221.79 c-3.15,0-5.71-2.56-5.71-5.71c0-3.15,2.56-5.71,5.71-5.71h166.47C391.42,386.57,393.98,389.12,393.98,392.28z"/></g></svg>