<?xml version="1.0" encoding="UTF-8"?><svg xmlns="http://www.w3.org/2000/svg" xmlns:xlink="http://www.w3.org/1999/xlink" height="80.9" preserveAspectRatio="xMidYMid meet" version="1.0" viewBox="-0.0 -2.4 65.5 80.9" width="65.5" zoomAndPan="magnify"><g data-name="42" id="change1_1"><path d="M53.74,57.15c.01.13.02.25.02.38v.03a1.369,1.369,0,0,1-1.04,1.32,1.142,1.142,0,0,1-.33.05,1.344,1.344,0,0,1-.4-.07,1.113,1.113,0,0,1-.31-.15.076.076,0,0,1-.05-.02,1.083,1.083,0,0,1-.37-.37c-.02-.03-.031-.07-.051-.1a1.988,1.988,0,0,1-.1-.21,1.13,1.13,0,0,1-.09-.45,2,2,0,0,0-.6-1.46c-.029-.03-.059-.05-.089-.08-.06-.05-.121-.1-.19-.15a2.458,2.458,0,0,0-.39-.22,2.138,2.138,0,0,0-.791-.15h-1.98a2.131,2.131,0,0,0-.75.14.877.877,0,0,0-.169.08,1.493,1.493,0,0,0-.22.12,1.029,1.029,0,0,0-.28.23c-.01.01-.03.02-.04.03a1.816,1.816,0,0,0-.351.48,2.021,2.021,0,0,0-.159.4c-.01.04-.031.07-.04.11a2.418,2.418,0,0,0-.06.47,1.66,1.66,0,0,0,.03.22c.01.06.01.13.019.19v.01a2.074,2.074,0,0,0,2.02,1.65h1.98c.031,0,.061.01.1.01a2.357,2.357,0,0,1,.26.01c.11.01.23.02.349.04.051.01.1.02.161.03a.5.5,0,0,1,.12.02c.02,0,.04.01.06.01a1.887,1.887,0,0,1,.34.09c.12.04.24.08.359.13a.478.478,0,0,1,.111.04c.01,0,.02.01.03.01a4.018,4.018,0,0,1,.46.24,1.324,1.324,0,0,1,.2.12,4.815,4.815,0,0,1,.83.66,4.338,4.338,0,0,1,.55.66.435.435,0,0,1,.06.07,4.231,4.231,0,0,1,.24.4c.06.1.1.21.15.31.03.08.06.15.09.23.04.11.09.21.12.32a2.136,2.136,0,0,1,.09.34.637.637,0,0,0,.02.07c0,.03.009.05.009.07a.268.268,0,0,1,.021.09,3.736,3.736,0,0,1,.06.75c0,.02.01.05.01.07a4.449,4.449,0,0,1-.16,1.16,4.576,4.576,0,0,1-.63,1.47c-.011.01-.011.02-.02.03s-.01.01-.01.02a5.015,5.015,0,0,1-.6.71v.01a4.625,4.625,0,0,1-.4.36,3.087,3.087,0,0,1-.37.26c-.01,0-.01.01-.02.01a1.29,1.29,0,0,1-.16.09,2.116,2.116,0,0,1-.2.12,1.577,1.577,0,0,1-.26.13.251.251,0,0,1-.07.04c-.1.04-.21.08-.31.12s-.17.05-.25.07a3.97,3.97,0,0,1-.97.19v1.52a1.388,1.388,0,0,1-.39.96l-.01.01a1.355,1.355,0,0,1-.951.4H47.97c-.02,0-.03-.01-.04-.01a1.281,1.281,0,0,1-.35-.06c-.02-.01-.04,0-.05-.01a.163.163,0,0,0-.051-.02.576.576,0,0,1-.079-.04.037.037,0,0,1-.03-.01c-.01-.01-.02-.02-.03-.02a1.373,1.373,0,0,1-.2-.13.138.138,0,0,1-.04-.03,1.26,1.26,0,0,1-.28-.33l-.02-.02-.03-.06a.031.031,0,0,0-.01-.02,1.319,1.319,0,0,1-.15-.6V69.21c-.2-.02-.39-.05-.58-.08l-.111-.03-.119-.03c-.02,0-.03-.01-.04-.01-.031-.01-.06-.01-.091-.02a4.976,4.976,0,0,1-.639-.24,1.038,1.038,0,0,1-.15-.08c-.1-.05-.2-.09-.3-.15-.08-.05-.15-.1-.23-.15a1.3,1.3,0,0,0-.15-.1.01.01,0,0,0-.01-.01,2.923,2.923,0,0,1-.271-.21,2.868,2.868,0,0,1-.319-.28v-.01c-.01-.01-.01-.02-.02-.02-.1-.11-.21-.22-.3-.33a3.979,3.979,0,0,1-.53-.78c-.07-.13-.14-.28-.2-.42a4.572,4.572,0,0,1-.27-.89,5.014,5.014,0,0,1-.09-.95,1.323,1.323,0,0,1,.28-.81,1.35,1.35,0,0,1,1.08-.54,1.377,1.377,0,0,1,.88.32.01.01,0,0,0,.01.01l.01.01a1.388,1.388,0,0,1,.39.57l.03.09a.014.014,0,0,1,0,.02l.03.15v.06a.487.487,0,0,1,.01.12,2.042,2.042,0,0,0,.61,1.46,2.079,2.079,0,0,0,.32.27.251.251,0,0,1,.07.04,2.017,2.017,0,0,0,1.069.31h1.98a2.056,2.056,0,0,0,.261-.03.487.487,0,0,0,.12-.01.142.142,0,0,0,.06-.02,1.991,1.991,0,0,0,.95-.5.218.218,0,0,0,.05-.04c.01-.01.01-.02.019-.02a2.017,2.017,0,0,0,.461-.7,2.123,2.123,0,0,0,.14-.75,2.435,2.435,0,0,0-.07-.55c-.01-.03-.02-.05-.031-.08a2.364,2.364,0,0,0-.229-.49,2.424,2.424,0,0,0-.25-.31c0-.01-.01-.02-.021-.03a2.054,2.054,0,0,0-1.119-.58,1.873,1.873,0,0,0-.341-.03h-1.98a5.009,5.009,0,0,1-.56-.03,3.072,3.072,0,0,1-.509-.1c-.07-.02-.14-.03-.21-.05-.09-.03-.17-.06-.26-.09a3.336,3.336,0,0,1-.44-.17c-.01-.01-.03-.01-.041-.02a1.144,1.144,0,0,1-.149-.08c-.09-.04-.17-.08-.26-.13s-.16-.11-.24-.17c-.05-.03-.1-.06-.141-.09a5.257,5.257,0,0,1-.569-.48,3.728,3.728,0,0,1-.32-.36,3.979,3.979,0,0,1-.53-.78c-.07-.14-.14-.28-.2-.42a4.791,4.791,0,0,1-.27-.89c-.03-.16-.051-.32-.071-.49-.009-.15-.019-.3-.019-.45a.808.808,0,0,1,.01-.15,4.379,4.379,0,0,1,.04-.51c.01-.05.01-.1.02-.15s.02-.09.03-.13c.03-.13.05-.25.09-.38.01-.03.02-.05.03-.08a1.087,1.087,0,0,1,.049-.17c.011-.03.02-.07.031-.1a1.667,1.667,0,0,1,.08-.2.536.536,0,0,0,.05-.11c.06-.11.109-.22.18-.33a.037.037,0,0,1,.01-.03.076.076,0,0,1,.02-.05,3.248,3.248,0,0,1,.2-.32c.06-.08.139-.16.2-.24.021-.03.051-.06.071-.09.1-.11.2-.24.3-.34a5.2,5.2,0,0,1,.44-.38.874.874,0,0,0,.1-.08c.1-.08.21-.14.31-.21.13-.08.259-.16.39-.23a2.445,2.445,0,0,1,.24-.11.925.925,0,0,1,.1-.05c.09-.04.19-.07.279-.11.071-.02.151-.04.231-.06.06-.02.12-.03.18-.05a6.007,6.007,0,0,1,.74-.12V51.25c0-.03.01-.06.01-.1a1.1,1.1,0,0,1,.02-.18c0-.01.01-.02.01-.03a1.436,1.436,0,0,1,.07-.23c.009-.03.03-.05.04-.08s.03-.04.04-.06v-.01a.55.55,0,0,1,.07-.09.978.978,0,0,1,.19-.22l.03-.03a1.392,1.392,0,0,1,.889-.33,1.36,1.36,0,0,1,1.351,1.36v1.53a3.106,3.106,0,0,1,.32.04c.1.02.2.04.309.06l.151.03c.03.01.05.01.08.02s.03.01.05.01c.11.03.219.07.33.11a2.993,2.993,0,0,1,.38.15h.009c.011.01.011.01.02.01.061.04.131.07.19.11a1.781,1.781,0,0,1,.271.15c.03.02.05.04.08.06.13.08.26.18.38.27a.873.873,0,0,0,.12.09c.08.07.16.14.24.22a.27.27,0,0,1,.08.07,4.361,4.361,0,0,1,.619.75,2.853,2.853,0,0,1,.231.38,3.539,3.539,0,0,1,.16.34,1,1,0,0,1,.069.16,2.013,2.013,0,0,1,.131.35c.03.1.05.21.07.31.02.08.04.15.06.23,0,.02.01.04.01.06A2.738,2.738,0,0,1,53.74,57.15ZM28.75,28.61a1.377,1.377,0,0,0,1.36-1.37V25.72a4.912,4.912,0,0,0,1.21-.25,4.773,4.773,0,0,0,1.8-7.91,4.7,4.7,0,0,0-3.38-1.41H27.76a2.019,2.019,0,0,1-1.44-.6c-.01,0-.01-.01-.02-.02a2.042,2.042,0,0,1-.61-1.46,1.81,1.81,0,0,1,.26-.97,1.638,1.638,0,0,1,.35-.49,2.048,2.048,0,0,1,1.46-.6h1.98a2.049,2.049,0,0,1,2.06,2.06,1.378,1.378,0,0,0,1.369,1.37,1.381,1.381,0,0,0,1.371-1.37,4.845,4.845,0,0,0-4.43-4.78V7.76a1.36,1.36,0,0,0-2.72,0V9.29a4.759,4.759,0,0,0-3.01,1.4,5.025,5.025,0,0,0-.57.67,4.66,4.66,0,0,0-.831,2.57.732.732,0,0,0-.009.14,4.714,4.714,0,0,0,1.41,3.39,4.783,4.783,0,0,0,2.81,1.38,5.3,5.3,0,0,0,.57.03h1.98a1.953,1.953,0,0,1,.34.03,2.06,2.06,0,0,1,1.12.58c.009.01.02.02.02.03a2,2,0,0,1,.58,1.43,2.026,2.026,0,0,1-.6,1.45.462.462,0,0,1-.07.07,2.019,2.019,0,0,1-1.39.55H27.76a1.987,1.987,0,0,1-1.46-.62,2.036,2.036,0,0,1-.61-1.45,1.36,1.36,0,1,0-2.72,0,4.714,4.714,0,0,0,1.41,3.39,4.775,4.775,0,0,0,3.01,1.39v1.52a1.368,1.368,0,0,0,1.35,1.37ZM65.49,61a17.734,17.734,0,0,1-.11,1.94,3.469,3.469,0,0,1-.06.45q-.03.315-.091.63c-.029.15-.049.31-.089.46a.936.936,0,0,1-.04.16c-.04.25-.1.49-.16.74-.15.56-.32,1.11-.51,1.64-.1.27-.21.53-.32.8s-.22.52-.35.77-.25.51-.38.76c-.25.46-.53.91-.82,1.34s-.581.83-.9,1.23c-.14.17-.28.34-.42.5a7.7,7.7,0,0,1-.54.6c-.11.12-.23.24-.35.36-.16.17-.32.32-.49.47s-.34.31-.51.45-.34.29-.52.43a17.23,17.23,0,0,1-4.61,2.63c-.16.06-.33.12-.491.18-.339.12-.689.23-1.039.32s-.67.18-1.021.25c-.21.05-.429.09-.649.13-.2.04-.41.07-.61.1s-.42.06-.64.08-.43.04-.65.05c-.12.01-.24.02-.36.02-.26.01-.52.02-.781.02-.609,0-1.209-.03-1.81-.09-.269-.03-.529-.06-.789-.1a17.572,17.572,0,0,1-2.31-.51c-.24-.07-.47-.14-.7-.22-.411-.14-.81-.29-1.2-.46q-.268-.1-.539-.24a5.6,5.6,0,0,1-.55-.27,1.267,1.267,0,0,1-.161-.08c-.25-.12-.489-.26-.729-.4a2.606,2.606,0,0,1-.28-.17c-.241-.14-.48-.29-.71-.45-.13-.09-.26-.18-.39-.28q-.225-.15-.45-.33c-.26-.19-.51-.4-.75-.61-.22-.18-.43-.38-.64-.58-.33-.3-.65-.63-.96-.97-.11-.12-.21-.24-.32-.36-.15-.18-.3-.36-.44-.54a.859.859,0,0,1-.081-.11q-.208-.255-.389-.51c-.111-.15-.21-.29-.31-.44-.27-.41-.53-.83-.77-1.26-.18-.31-.34-.62-.491-.94-.129-.25-.239-.51-.349-.77s-.21-.5-.3-.75-.18-.5-.26-.75a17.877,17.877,0,0,1-.65-2.85c-.04-.29-.07-.57-.09-.86-.02-.19-.04-.39-.05-.59-.02-.34-.031-.68-.031-1.02a6.634,6.634,0,0,0,.011-.54v-.08h-25a2.32,2.32,0,0,1-2.321-2.31V54A2.322,2.322,0,0,1,5.49,51.68h5.17V48.62H2.32A2.32,2.32,0,0,1,0,46.31V42.24a2.322,2.322,0,0,1,2.32-2.32H9.9V36.39a2.321,2.321,0,0,1,2.319-2.32H23.071c-.053-.018-.109-.031-.161-.05-.28-.1-.55-.21-.82-.32s-.55-.23-.81-.36a14.044,14.044,0,0,1-1.571-.84c-.269-.16-.54-.33-.8-.51-.2-.14-.4-.28-.59-.42l-.373-.293a17.345,17.345,0,0,1-3.227-3.3,17.594,17.594,0,0,0,1.67,1.91c-.3-.3-.6-.61-.87-.93s-.55-.64-.8-.98a.209.209,0,0,1-.04-.06c-.32-.43-.62-.87-.9-1.33a.457.457,0,0,1-.051-.09c-.149-.24-.289-.49-.419-.74s-.26-.5-.38-.76a6.858,6.858,0,0,1-.35-.78c-.11-.26-.21-.53-.31-.8a15.884,15.884,0,0,1-.68-2.46,17.108,17.108,0,0,1-.35-3.45,17.411,17.411,0,0,1,.209-2.558c.017-.117.036-.233.055-.349.061-.364.126-.725.21-1.08.04-.173.092-.343.137-.514a17.081,17.081,0,0,1,.858-2.5c.141-.33.3-.66.471-.98.008-.016.018-.031.026-.047-.009.016-.019.031-.027.047.042-.083.091-.161.134-.243.084-.157.165-.316.257-.467.016-.033.038-.066.057-.1.063-.108.123-.217.188-.324l.005-.007c.05-.08.1-.16.15-.24l.017-.017A17.46,17.46,0,0,1,37.75,2.5q.42.255.84.54c.05.04.11.07.16.11.22.15.44.31.66.49a2.472,2.472,0,0,1,.27.21c.2.16.39.32.58.49.08.07.159.14.23.21.153.132.3.276.445.418-.146-.141-.291-.284-.441-.421.215.2.429.4.636.6l.035.036c.077.077.151.156.226.234.023.024.046.045.068.07.171.18.331.35.491.53.219.26.43.51.63.77a1.638,1.638,0,0,1,.2.26c.22.28.42.57.61.86.14.2.27.41.39.62s.25.42.37.64a15.6,15.6,0,0,1,.73,1.53c.1.22.18.44.27.66.03.09.07.19.1.29.09.26.18.53.27.79s.16.52.23.79a14.477,14.477,0,0,1,.31,1.62c.04.29.08.58.109.87a15.912,15.912,0,0,1,0,3.58c-.029.29-.069.58-.109.87-.05.33-.11.65-.18.97s-.14.64-.23.95a1.812,1.812,0,0,1-.09.31,4.913,4.913,0,0,1-.15.51l-.06.18c-.05.15-.1.29-.16.44-.04.13-.09.27-.14.4-.03.09-.071.18-.11.27a15.9,15.9,0,0,1-.72,1.56c-.18.32-.36.64-.57.95-.12.2-.25.4-.38.59-.3.44-.61.86-.95,1.27-.19.24-.4.48-.611.71-.189.21-.379.41-.579.61a17.27,17.27,0,0,1-2,1.72c-.171.13-.34.25-.51.37a1.739,1.739,0,0,1-.18.11c-.2.14-.4.27-.61.39s-.4.24-.6.35-.419.23-.639.34c-.361.18-.73.35-1.1.5-.3.13-.6.24-.9.35-.053.019-.109.032-.162.05H43.8a2.322,2.322,0,0,1,2.321,2.32v4.07A2.32,2.32,0,0,1,43.8,42.77H36.22v3.05h3.06c.32-.18.639-.35.96-.51.12-.06.239-.12.37-.18.15-.07.29-.14.44-.2a3.335,3.335,0,0,1,.4-.16c.2-.09.41-.16.61-.24.419-.15.85-.29,1.29-.41l.62-.15c.22-.05.44-.09.66-.14a16.839,16.839,0,0,1,3.349-.33,17.228,17.228,0,0,1,5.111.77c.54.17,1.079.35,1.6.57a6.938,6.938,0,0,1,.78.35c.259.12.509.24.759.38s.5.27.741.42a.405.405,0,0,1,.09.05c.46.28.9.58,1.33.9a6.9,6.9,0,0,1,.68.53c.437.368.866.756,1.273,1.164l0,0,.009.008c.14.14.28.28.42.43s.27.29.4.44c.261.3.521.61.761.92s.46.64.68.97c.2.29.38.59.559.9.031.05.06.1.091.15.14.25.28.51.4.77a14.484,14.484,0,0,1,.64,1.45,6.035,6.035,0,0,1,.26.71c.05.13.09.26.13.39.09.28.17.57.25.86.07.26.13.53.18.8.01.02.01.05.02.08.029.16.069.33.089.5a5.157,5.157,0,0,1,.091.58,3.934,3.934,0,0,1,.06.48A17.551,17.551,0,0,1,65.49,61ZM11.344,15.863c.014-.152.034-.3.052-.455C11.378,15.56,11.358,15.711,11.344,15.863Zm.324-2.105c-.03.137-.054.275-.08.412C11.614,14.033,11.638,13.9,11.668,13.758ZM35.495,1.367c.07.029.141.055.211.085C35.636,1.422,35.565,1.4,35.495,1.367ZM34.33.933c.119.04.239.078.358.12C34.569,1.011,34.449.973,34.33.933Zm-1.1-.328c.139.036.277.073.415.113C33.5.678,33.365.641,33.226.605Zm-1.1-.251c.146.029.291.06.436.092C32.418.414,32.273.383,32.127.354ZM31.02.176c.144.018.286.042.429.064C31.306.218,31.164.194,31.02.176ZM29.9.068c.122.008.244.022.366.033C30.146.09,30.024.076,29.9.068ZM13.988,8.132l0,0L14,8.118ZM28.74,32.31h.01a13.658,13.658,0,0,0,2.57-.23A14.834,14.834,0,0,0,43.56,17.5,14.819,14.819,0,0,0,28.75,2.71a14.585,14.585,0,0,0-8.48,2.66,15.638,15.638,0,0,0-1.99,1.66c-.071.08-.14.15-.21.23a14.258,14.258,0,0,0-1.03,1.18,14.795,14.795,0,0,0,1.24,19.53c.09.09.16.16.24.23a14.29,14.29,0,0,0,2.57,1.98A14.673,14.673,0,0,0,28.74,32.31Zm-16,7.61H33.9c.034,0,.064.008.1.01h9.271V36.92H12.74Zm-9.9,5.86H33.37V42.77H2.84Zm10.65,5.9H33.18a17.244,17.244,0,0,1,1.79-2.37,5,5,0,0,1,.39-.41,2.391,2.391,0,0,1,.22-.23H13.49Zm18.23,2.85H6.01v3.01H30.82a17.782,17.782,0,0,1,.72-2.55C31.6,54.83,31.66,54.68,31.72,54.53Zm31.06,6.46A14.818,14.818,0,0,0,47.97,46.2a14.806,14.806,0,0,0-8.2,2.47c-.1.06-.19.13-.28.19-.21.14-.41.3-.61.45a15.72,15.72,0,0,0-1.38,1.21c-.07.08-.14.15-.21.23a11.861,11.861,0,0,0-.82.93,2.525,2.525,0,0,0-.21.25c-.06.08-.12.15-.17.23a15.062,15.062,0,0,0-1.33,2.12l-.12.24v.01c-.11.21-.2.43-.29.64a13.154,13.154,0,0,0-.78,2.37c-.01.03-.01.05-.02.08a1.745,1.745,0,0,0-.08.39,14.241,14.241,0,0,0-.29,2.37v.08a4.608,4.608,0,0,0-.02.53,14.463,14.463,0,0,0,.21,2.48,13.807,13.807,0,0,0,.78,2.85,14.56,14.56,0,0,0,3.35,5.14c.09.09.16.16.24.23a14.325,14.325,0,0,0,2.57,1.98,14.672,14.672,0,0,0,7.649,2.13h.011a13.651,13.651,0,0,0,2.57-.23A14.832,14.832,0,0,0,62.78,60.99ZM13.15,9.58c-.16.3-.3.61-.441.93.145-.333.3-.658.47-.98C13.17,9.547,13.159,9.563,13.15,9.58Z"/></g></svg>