<?xml version="1.0" encoding="UTF-8"?><svg xmlns="http://www.w3.org/2000/svg" xmlns:xlink="http://www.w3.org/1999/xlink" height="459.3" preserveAspectRatio="xMidYMid meet" version="1.0" viewBox="-0.6 -0.7 480.1 459.3" width="480.1" zoomAndPan="magnify"><g id="change1_1"><path d="M410.2303467,458.6499023h-107.359375c-4.1425781,0-7.5-3.3574219-7.5-7.5V298.840332H186.1707916v152.3095703 c0,4.1425781-3.3579102,7.5-7.5,7.5H68.6307526c-4.1420898,0-7.5-3.3574219-7.5-7.5V227.4907227H7.50038 c-3.0932617,0-5.8691406-1.8994141-6.9902344-4.7827148c-1.1210938-2.8828125-0.3569336-6.1582031,1.9238281-8.2475586 L234.364151,1.9702148c2.8671875-2.6269531,7.265625-2.6269531,10.1328125,0l231.9296722,212.4902344 c2.28125,2.0893555,3.0449219,5.3647461,1.9238281,8.2475586c-1.1210938,2.8833008-3.8974609,4.7827148-6.9902344,4.7827148 h-53.6298828v223.6591797C417.7303467,455.2924805,414.3729248,458.6499023,410.2303467,458.6499023z M310.3709717,443.6499023 h92.359375v-223.659668c0-4.1420898,3.3574219-7.5,7.5-7.5h41.8417969L239.4305573,17.671875L26.7889538,212.4902344h41.8417969 c4.1420898,0,7.5,3.3579102,7.5,7.5v223.659668h95.0400391V291.340332c0-4.1425781,3.3579102-7.5,7.5-7.5h124.2001801 c4.1425781,0,7.5,3.3574219,7.5,7.5V443.6499023z" fill="inherit"/></g></svg>