<?xml version="1.0" encoding="UTF-8"?><svg xmlns="http://www.w3.org/2000/svg" xmlns:xlink="http://www.w3.org/1999/xlink" height="80.8" preserveAspectRatio="xMidYMid meet" version="1.0" viewBox="-0.0 -0.0 83.8 80.8" width="83.8" zoomAndPan="magnify"><g data-name="25" id="change1_1"><path d="M55.249,33.18a1.344,1.344,0,0,1-1.344,1.344H10.4a1.344,1.344,0,1,1,0-2.688h43.5A1.344,1.344,0,0,1,55.249,33.18Zm-40.4-12.292H13.223a1.479,1.479,0,0,1-1.043-.435l-.053-.048a1.491,1.491,0,0,1-.382-1,1.344,1.344,0,1,0-2.688,0A4.153,4.153,0,0,0,10.2,22.263l.082.09a4.138,4.138,0,0,0,2.418,1.17V24.6a1.338,1.338,0,0,0,2.676,0V23.523a4.156,4.156,0,0,0-.525-8.279H13.223a1.475,1.475,0,0,1-1.043-.435l-.053-.048a1.482,1.482,0,0,1,1.1-2.473h1.626a1.485,1.485,0,0,1,1.478,1.478,1.344,1.344,0,0,0,2.688,0,4.136,4.136,0,0,0-3.641-4.113V8.578a1.338,1.338,0,0,0-2.676,0V9.653a4.142,4.142,0,0,0-2.5,6.966l.082.09a4.149,4.149,0,0,0,2.943,1.223h1.626a1.478,1.478,0,0,1,0,2.956Zm15.614,0H28.837a1.482,1.482,0,0,1-1.043-.435l-.052-.048a1.492,1.492,0,0,1-.383-1,1.344,1.344,0,1,0-2.688,0,4.149,4.149,0,0,0,1.142,2.853l.081.09a4.14,4.14,0,0,0,2.418,1.17V24.6a1.338,1.338,0,0,0,2.676,0V23.523a4.156,4.156,0,0,0-.525-8.279H28.837a1.478,1.478,0,0,1-1.043-.435l-.052-.048a1.481,1.481,0,0,1,1.095-2.473h1.626a1.485,1.485,0,0,1,1.478,1.478,1.344,1.344,0,0,0,2.688,0,4.136,4.136,0,0,0-3.641-4.113V8.578a1.338,1.338,0,0,0-2.676,0V9.653a4.141,4.141,0,0,0-2.5,6.966l.081.09a4.152,4.152,0,0,0,2.943,1.223h1.626a1.478,1.478,0,0,1,0,2.956Zm52.994,1.791-2.406,4.6v0l0,0L65.729,56.549c0,.031.019.059.019.092V79.406A1.344,1.344,0,0,1,64.4,80.75H1.344A1.344,1.344,0,0,1,0,79.406V1.344A1.344,1.344,0,0,1,1.344,0H45.423a1.342,1.342,0,0,1,1.038.491L65.37,20.236a1.324,1.324,0,0,1,.282.443,1.388,1.388,0,0,1,.031.161,1.343,1.343,0,0,1,.061.324l0,13.808L74.6,18.047a1.339,1.339,0,0,1,1.806-.566l6.48,3.392A1.34,1.34,0,0,1,83.457,22.679Zm-36.69-2.857H61.26L46.767,4.686ZM63.06,59.2l-4.987,3.892a1.341,1.341,0,0,1-2.214-1.089l.5-8.834c0-.008.006-.014.006-.023a1.319,1.319,0,0,1,.14-.5c0-.007,0-.015.006-.021L63.06,40.1V22.5l-17.635,0a1.344,1.344,0,0,1-1.344-1.344V2.686H2.688V78.057H63.06Zm-4.36.006,3.01-2.348-2.8-1.463ZM78.057,27.223l-4.109-2.151-8.3,15.867a.146.146,0,0,0-.011.021L59.5,52.68l2.187,1.145,1.923,1.006Zm2.408-4.6-4.109-2.151L75.189,22.7l4.11,2.151ZM51.188,57.381H10.4a1.344,1.344,0,1,0,0,2.688H51.188a1.344,1.344,0,0,0,0-2.688Zm0,8.514H10.4a1.344,1.344,0,0,0,0,2.688H51.188a1.344,1.344,0,0,0,0-2.688Zm2.717-25.543H10.4a1.344,1.344,0,1,0,0,2.688h43.5a1.344,1.344,0,0,0,0-2.688Zm0,8.514H10.4a1.344,1.344,0,1,0,0,2.688h43.5a1.344,1.344,0,0,0,0-2.688Z"/></g></svg>